<?xml version="1.0" encoding="UTF-8"?><svg xmlns="http://www.w3.org/2000/svg" xmlns:xlink="http://www.w3.org/1999/xlink" version="1.1" id="Layer_1" x="0px" y="0px" viewBox="0 0 16 16" xml:space="preserve"><path id="XMLID_3052_" d="M6 3L3 4.565V10h5.565L10 7H6z"/><path id="XMLID_3051_" d="M3 0l3 3h4v4l3 3V0z"/><path d="M13.5 11h-2a.5.5 0 0 0-.5.5v4a.5.5 0 0 0 .5.5h2c1.379 0 2.5-1.121 2.5-2.5S14.879 11 13.5 11zm0 4H12v-3h1.5c.827 0 1.5.673 1.5 1.5s-.673 1.5-1.5 1.5z"/><path d="M9.691 11.038a.502.502 0 0 0-.545.108L7.5 12.793l-1.646-1.646A.5.5 0 0 0 5 11.5v4a.5.5 0 0 0 1 0v-2.793l1.146 1.146a.5.5 0 0 0 .707 0L9 12.707V15.5a.5.5 0 0 0 1 0v-4a.5.5 0 0 0-.309-.462z"/><path d="M2.468 11.324c-.146-.391-.79-.391-.937 0l-1.5 4a.5.5 0 0 0 .936.352L1.222 15h1.557l.253.676a.5.5 0 0 0 .936-.352l-1.5-4zM1.597 14L2 12.924 2.403 14h-.806z"/><metadata><rdf:RDF xmlns:rdf="http://www.w3.org/1999/02/22-rdf-syntax-ns#" xmlns:rdfs="http://www.w3.org/2000/01/rdf-schema#" xmlns:dc="http://purl.org/dc/elements/1.1/"><rdf:Description about="https://iconscout.com/legal#licenses" dc:title="amd,logo,solid,e" dc:description="amd,logo,solid,e" dc:publisher="Iconscout" dc:date="2018-03-05" dc:format="image/svg+xml" dc:language="en"><dc:creator><rdf:Bag><rdf:li>Pixel Icons</rdf:li></rdf:Bag></dc:creator></rdf:Description></rdf:RDF></metadata></svg>